<svg xmlns="http://www.w3.org/2000/svg" width="60" height="48" viewBox="0 0 60 48"><defs><style>.a{fill:#afafaf;}</style></defs><path class="a" d="M54.375,52.5H5.625A5.822,5.822,0,0,1,0,46.5v-36a5.822,5.822,0,0,1,5.625-6h48.75A5.822,5.822,0,0,1,60,10.5v36A5.822,5.822,0,0,1,54.375,52.5Zm-41.25-41a6.792,6.792,0,0,0-6.562,7,6.792,6.792,0,0,0,6.563,7,6.792,6.792,0,0,0,6.563-7A6.792,6.792,0,0,0,13.125,11.5ZM7.5,44.5h45v-14L42.244,19.561a1.345,1.345,0,0,0-1.989,0L24.375,36.5l-6.506-6.939a1.345,1.345,0,0,0-1.989,0L7.5,38.5Z" transform="translate(0 -4.5)"/></svg>